<svg xmlns="http://www.w3.org/2000/svg" viewBox="0 0 512 512">
    <path fill="#000000" d="M128 0c-17.7 0-32 14.3-32 32V64H32C14.3 64 0 78.3 0 96V352c0 17.7 14.3 32 32 32h96c17.7 0 32-14.3 32-32V320h96v32c0 17.7 14.3 32 32 32h96c17.7 0 32-14.3 32-32V96c0-17.7-14.3-32-32-32H320V32c0-17.7-14.3-32-32-32H128zM64 192a32 32 0 1 1 0 64 32 32 0 1 1 0-64zm192 32a32 32 0 1 1 64 0 32 32 0 1 1 -64 0zM32 416c-17.7 0-32 14.3-32 32v32c0 17.7 14.3 32 32 32H480c17.7 0 32-14.3 32-32V448c0-17.7-14.3-32-32-32H32z"/>
</svg>